<svg width="31" height="31" viewBox="0 0 31 31" fill="none" xmlns="http://www.w3.org/2000/svg">
<g filter="url(#filter0_d_124_7438)">
<path d="M15.129 2.00535C18.1005 2.00535 18.4524 2.01647 19.6262 2.07C20.332 2.07864 21.0311 2.20823 21.693 2.45316C22.1731 2.63829 22.6091 2.9219 22.9729 3.28571C23.3367 3.64953 23.6203 4.0855 23.8054 4.56555C24.0504 5.22752 24.18 5.92659 24.1886 6.63237C24.2416 7.80622 24.2532 8.15811 24.2532 11.1296C24.2532 14.101 24.2421 14.4529 24.1886 15.6267C24.18 16.3325 24.0504 17.0316 23.8054 17.6936C23.6203 18.1736 23.3367 18.6096 22.9729 18.9734C22.6091 19.3372 22.1731 19.6208 21.693 19.806C21.0311 20.0509 20.332 20.1805 19.6262 20.1891C18.4529 20.2421 18.101 20.2538 15.129 20.2538C12.157 20.2538 11.8052 20.2426 10.6318 20.1891C9.92607 20.1805 9.227 20.0509 8.56502 19.806C8.08497 19.6208 7.649 19.3372 7.28518 18.9734C6.92137 18.6096 6.63776 18.1736 6.45263 17.6936C6.2077 17.0316 6.07811 16.3325 6.06947 15.6267C6.01647 14.4529 6.00482 14.101 6.00482 11.1296C6.00482 8.15811 6.01594 7.80622 6.06947 6.63237C6.07811 5.92659 6.2077 5.22752 6.45263 4.56555C6.63776 4.0855 6.92137 3.64953 7.28518 3.28571C7.649 2.9219 8.08497 2.63829 8.56502 2.45316C9.227 2.20823 9.92607 2.07864 10.6318 2.07C11.8057 2.017 12.1576 2.00535 15.129 2.00535ZM15.129 0C12.1083 0 11.7278 0.0127189 10.5407 0.0667741C9.61701 0.0851465 8.70313 0.260038 7.83793 0.584009C7.09572 0.863648 6.42348 1.30187 5.86809 1.86809C5.30135 2.42368 4.86276 3.09631 4.58295 3.83899C4.25898 4.70419 4.08409 5.61807 4.06571 6.54175C4.01272 7.72779 4 8.10829 4 11.129C4 14.1498 4.01272 14.5303 4.06677 15.7174C4.08515 16.6411 4.26004 17.5549 4.58401 18.4201C4.86351 19.1627 5.30174 19.8353 5.86809 20.391C6.42378 20.9574 7.0964 21.3956 7.83899 21.6751C8.70419 21.9991 9.61807 22.174 10.5417 22.1923C11.7288 22.2453 12.1078 22.2591 15.1301 22.2591C18.1524 22.2591 18.5313 22.2464 19.7184 22.1923C20.6421 22.174 21.556 21.9991 22.4212 21.6751C23.1603 21.3886 23.8314 20.9511 24.3917 20.3904C24.952 19.8297 25.3891 19.1583 25.6751 18.4191C25.9991 17.5539 26.174 16.64 26.1923 15.7163C26.2453 14.5303 26.2581 14.1498 26.2581 11.129C26.2581 8.10829 26.2453 7.72779 26.1913 6.54069C26.1729 5.61701 25.998 4.70313 25.6741 3.83792C25.3946 3.09534 24.9563 2.42272 24.39 1.86703C23.8343 1.30068 23.1617 0.862451 22.4191 0.582949C21.5539 0.258978 20.64 0.0840867 19.7163 0.0657143C18.5303 0.0127189 18.1498 0 15.129 0Z" fill="white"/>
<path d="M15.133 5.41406C14.0027 5.41406 12.8977 5.74924 11.9579 6.37722C11.0181 7.00519 10.2856 7.89776 9.853 8.94204C9.42045 9.98632 9.30727 11.1354 9.52778 12.244C9.7483 13.3526 10.2926 14.371 11.0919 15.1702C11.8911 15.9695 12.9094 16.5138 14.018 16.7343C15.1267 16.9548 16.2758 16.8416 17.32 16.4091C18.3643 15.9765 19.2569 15.244 19.8849 14.3042C20.5128 13.3643 20.848 12.2594 20.848 11.1291C20.848 9.61337 20.2459 8.15973 19.1741 7.08795C18.1023 6.01618 16.6487 5.41406 15.133 5.41406ZM15.133 14.8388C14.3993 14.8388 13.6821 14.6212 13.072 14.2136C12.462 13.8059 11.9865 13.2266 11.7057 12.5487C11.4249 11.8709 11.3515 11.125 11.4946 10.4054C11.6377 9.68576 11.991 9.02475 12.5099 8.50595C13.0287 7.98714 13.6897 7.63383 14.4093 7.49069C15.1289 7.34755 15.8748 7.42101 16.5526 7.70179C17.2305 7.98257 17.8099 8.45805 18.2175 9.0681C18.6251 9.67815 18.8427 10.3954 18.8427 11.1291C18.8427 12.113 18.4518 13.0565 17.7561 13.7522C17.0604 14.4479 16.1169 14.8388 15.133 14.8388Z" fill="white"/>
<path d="M21.0699 6.52448C21.8074 6.52448 22.4053 5.92657 22.4053 5.189C22.4053 4.45143 21.8074 3.85352 21.0699 3.85352C20.3323 3.85352 19.7344 4.45143 19.7344 5.189C19.7344 5.92657 20.3323 6.52448 21.0699 6.52448Z" fill="white"/>
</g>
<defs>
<filter id="filter0_d_124_7438" x="0" y="0" width="30.2581" height="30.2598" filterUnits="userSpaceOnUse" color-interpolation-filters="sRGB">
<feFlood flood-opacity="0" result="BackgroundImageFix"/>
<feColorMatrix in="SourceAlpha" type="matrix" values="0 0 0 0 0 0 0 0 0 0 0 0 0 0 0 0 0 0 127 0" result="hardAlpha"/>
<feOffset dy="4"/>
<feGaussianBlur stdDeviation="2"/>
<feComposite in2="hardAlpha" operator="out"/>
<feColorMatrix type="matrix" values="0 0 0 0 0 0 0 0 0 0 0 0 0 0 0 0 0 0 0.25 0"/>
<feBlend mode="normal" in2="BackgroundImageFix" result="effect1_dropShadow_124_7438"/>
<feBlend mode="normal" in="SourceGraphic" in2="effect1_dropShadow_124_7438" result="shape"/>
</filter>
</defs>
</svg>
