<svg width="23" height="23" viewBox="0 0 23 23" fill="none" xmlns="http://www.w3.org/2000/svg">
<g clip-path="url(#clip0_1956_2207)">
<path fill-rule="evenodd" clip-rule="evenodd" d="M19.9542 1.75119C20.2279 1.636 20.5275 1.59627 20.8218 1.63614C21.116 1.67601 21.3942 1.79402 21.6274 1.97788C21.8605 2.16175 22.0402 2.40476 22.1476 2.68161C22.2549 2.95845 22.2862 3.25903 22.238 3.55203L19.7261 18.7883C19.4824 20.258 17.8699 21.1008 16.522 20.3688C15.3945 19.7563 13.72 18.8127 12.2137 17.8281C11.4606 17.3352 9.15361 15.757 9.43714 14.634C9.6808 13.6738 13.5572 10.0654 15.7722 7.92013C16.6416 7.0773 16.2451 6.5911 15.2184 7.36637C12.6678 9.29125 8.57548 12.2185 7.22208 13.0425C6.02816 13.769 5.40573 13.893 4.66147 13.769C3.30364 13.5431 2.04438 13.1931 1.01659 12.7667C-0.372254 12.1908 -0.304695 10.2814 1.01548 9.72541L19.9542 1.75119Z" fill="white"/>
</g>
<defs>
<clipPath id="clip0_1956_2207">
<rect width="22.26" height="22.26" fill="white"/>
</clipPath>
</defs>
</svg>
