<svg width="23" height="23" viewBox="0 0 23 23" fill="none" xmlns="http://www.w3.org/2000/svg">
<g clip-path="url(#clip0_1954_2189)">
<path d="M21.7496 5.41489C21.9051 4.89834 21.7496 4.51953 21.0142 4.51953H18.5781C17.9582 4.51953 17.675 4.84724 17.5194 5.20716C17.5194 5.20716 16.2808 8.2276 14.5257 10.1861C13.9591 10.7559 13.7003 10.9359 13.3915 10.9359C13.2371 10.9359 13.0127 10.7559 13.0127 10.2394V5.41489C13.0127 4.79503 12.8338 4.51953 12.3173 4.51953H8.48923C8.10265 4.51953 7.86936 4.80613 7.86936 5.07941C7.86936 5.66594 8.74695 5.80147 8.83693 7.45444V11.0403C8.83693 11.8257 8.69585 11.969 8.38481 11.969C7.55943 11.969 5.55099 8.93744 4.35903 5.4671C4.12686 4.7928 3.89247 4.52064 3.27039 4.52064H0.83537C0.138858 4.52064 0 4.84835 0 5.20827C0 5.85479 0.825372 9.05408 3.8447 13.2854C5.85759 16.1747 8.6914 17.741 11.2731 17.741C12.8205 17.741 13.0116 17.3933 13.0116 16.7935V14.6095C13.0116 13.9141 13.1593 13.7741 13.6492 13.7741C14.0091 13.7741 14.629 13.9563 16.0742 15.3482C17.725 16.999 17.9982 17.7399 18.9258 17.7399H21.3608C22.0562 17.7399 22.4039 17.3922 22.204 16.7057C21.9851 16.0225 21.1964 15.0283 20.15 13.8519C19.5812 13.1809 18.7314 12.4589 18.4726 12.0979C18.1115 11.6324 18.216 11.4269 18.4726 11.0136C18.4737 11.0148 21.4408 6.83568 21.7496 5.41489Z" fill="white"/>
</g>
<defs>
<clipPath id="clip0_1954_2189">
<rect width="22.26" height="22.26" fill="white"/>
</clipPath>
</defs>
</svg>
