<svg width="23" height="24" viewBox="0 0 23 24" fill="none" xmlns="http://www.w3.org/2000/svg">
<g clip-path="url(#clip0_1954_2193)">
<path d="M8.904 15.4269L14.6805 12.0879L8.904 8.74888V15.4269ZM21.7703 6.71209C21.915 7.2352 22.0151 7.93638 22.0819 8.82678C22.1598 9.71718 22.1932 10.4852 22.1932 11.153L22.26 12.0879C22.26 14.5253 22.0819 16.3173 21.7703 17.4637C21.492 18.4654 20.8465 19.1109 19.8448 19.3892C19.3217 19.5338 18.3645 19.634 16.8953 19.7008C15.4484 19.7787 14.124 19.8121 12.8997 19.8121L11.13 19.8789C6.46653 19.8789 3.5616 19.7008 2.41521 19.3892C1.41351 19.1109 0.76797 18.4654 0.48972 17.4637C0.34503 16.9406 0.24486 16.2394 0.17808 15.349C0.10017 14.4586 0.0667799 13.6906 0.0667799 13.0228L0 12.0879C0 9.65041 0.17808 7.85848 0.48972 6.71209C0.76797 5.71039 1.41351 5.06485 2.41521 4.7866C2.93832 4.64191 3.8955 4.54173 5.36466 4.47495C6.81156 4.39704 8.13603 4.36365 9.36033 4.36365L11.13 4.29688C15.7935 4.29688 18.6984 4.47496 19.8448 4.7866C20.8465 5.06485 21.492 5.71039 21.7703 6.71209Z" fill="white"/>
</g>
<defs>
<clipPath id="clip0_1954_2193">
<rect width="22.26" height="22.26" fill="white" transform="translate(0 0.957031)"/>
</clipPath>
</defs>
</svg>
