<svg width="46" height="47" viewBox="0 0 46 47" fill="none" xmlns="http://www.w3.org/2000/svg">
<circle cx="23" cy="23.043" r="22.5" fill="#18181B" stroke="url(#paint0_linear_124_7443)"/>
<path fill-rule="evenodd" clip-rule="evenodd" d="M23.1306 12C16.9624 12 12 17.0856 12 23.4069C12 28.445 15.2 32.7226 19.6059 34.2435C20.1624 34.3386 20.3479 34.0059 20.3479 33.6732C20.3479 33.388 20.3479 32.6751 20.3479 31.7245C17.2406 32.4374 16.5914 30.2036 16.5914 30.2036C16.0812 28.8728 15.3392 28.5401 15.3392 28.5401C14.3189 27.8271 15.4319 27.8271 15.4319 27.8271C16.545 27.9222 17.1479 29.0153 17.1479 29.0153C18.1218 30.7739 19.745 30.2511 20.3943 29.9659C20.4871 29.2055 20.7653 28.7302 21.09 28.445C18.632 28.1598 16.0348 27.1617 16.0348 22.7891C16.0348 21.5533 16.4522 20.5077 17.1943 19.7472C17.1015 19.462 16.6841 18.3213 17.287 16.7054C17.287 16.7054 18.2146 16.4202 20.3479 17.8936C21.2291 17.6559 22.203 17.5133 23.1306 17.5133C24.0581 17.5133 25.032 17.6559 25.9132 17.8936C28.0466 16.4202 28.9741 16.7054 28.9741 16.7054C29.577 18.2738 29.206 19.4145 29.0669 19.7472C29.7625 20.5552 30.2263 21.5533 30.2263 22.7891C30.2263 27.1617 27.6292 28.1123 25.1248 28.3975C25.5422 28.7302 25.8668 29.4431 25.8668 30.4887C25.8668 32.0097 25.8668 33.2454 25.8668 33.6256C25.8668 33.9108 26.0523 34.291 26.6552 34.196C31.0611 32.7226 34.2611 28.445 34.2611 23.4069C34.2611 17.0856 29.2988 12 23.1306 12Z" fill="white"/>
<defs>
<linearGradient id="paint0_linear_124_7443" x1="-3.05176e-05" y1="23.043" x2="46" y2="23.043" gradientUnits="userSpaceOnUse">
<stop stop-color="#0CBAF1"/>
<stop offset="1" stop-color="#E95CE9"/>
</linearGradient>
</defs>
</svg>
