<svg width="23" height="24" viewBox="0 0 23 24" fill="none" xmlns="http://www.w3.org/2000/svg">
<g clip-path="url(#clip0_1954_2195)">
<path d="M11.13 0.957031C4.98624 0.957031 0 5.94327 0 12.087C0 18.2308 4.98624 23.217 11.13 23.217C17.2738 23.217 22.26 18.2308 22.26 12.087C22.26 5.94327 17.2738 0.957031 11.13 0.957031ZM16.2943 8.52543C16.1274 10.284 15.4039 14.5579 15.0366 16.5279C14.8808 17.3627 14.5692 17.6409 14.2798 17.6743C13.6343 17.7299 13.1445 17.2514 12.5213 16.8395C11.5418 16.194 10.9853 15.7933 10.0393 15.17C8.93739 14.4466 9.64971 14.0459 10.2841 13.4004C10.4511 13.2334 13.3004 10.6401 13.356 10.4064C13.3637 10.371 13.3627 10.3342 13.353 10.2993C13.3433 10.2644 13.3252 10.2324 13.3004 10.2061C13.2336 10.1504 13.1445 10.1727 13.0666 10.1838C12.9665 10.2061 11.4083 11.2412 8.36976 13.2891C7.92456 13.5896 7.52388 13.7454 7.16772 13.7343C6.76704 13.7231 6.0102 13.5117 5.44257 13.3225C4.74138 13.0999 4.19601 12.9774 4.24053 12.5879C4.26279 12.3875 4.54104 12.1872 5.06415 11.9757C8.31411 10.5622 10.4733 9.6273 11.5529 9.1821C14.6471 7.89102 15.2815 7.66842 15.7044 7.66842C15.7935 7.66842 16.0049 7.69068 16.1385 7.80198C16.2498 7.89102 16.2832 8.01345 16.2943 8.10249C16.2832 8.16927 16.3054 8.36961 16.2943 8.52543Z" fill="white"/>
</g>
<defs>
<clipPath id="clip0_1954_2195">
<rect width="22.26" height="22.26" fill="white" transform="translate(0 0.957031)"/>
</clipPath>
</defs>
</svg>
